<svg xmlns="http://www.w3.org/2000/svg" xmlns:xlink="http://www.w3.org/1999/xlink" width="500" zoomAndPan="magnify" viewBox="0 0 375 374.999991" height="500" preserveAspectRatio="xMidYMid meet" version="1.0"><defs><clipPath id="id1"><path d="M 118 82.570312 L 257 82.570312 L 257 262 L 118 262 Z M 118 82.570312 " clip-rule="nonzero"/></clipPath><clipPath id="id2"><path d="M 97.523438 236 L 277.523438 236 L 277.523438 292.570312 L 97.523438 292.570312 Z M 97.523438 236 " clip-rule="nonzero"/></clipPath></defs><g clip-path="url(#id1)"><path fill="rgb(20.779419%, 87.449646%, 85.488892%)" d="M 184.523438 259.90625 C 185.390625 260.644531 186.460938 261.011719 187.53125 261.011719 C 188.601562 261.011719 189.671875 260.644531 190.542969 259.90625 C 193.222656 257.644531 256.199219 203.820312 256.199219 151.265625 C 256.195312 113.386719 225.394531 82.570312 187.53125 82.570312 C 149.671875 82.570312 118.871094 113.386719 118.871094 151.265625 C 118.871094 203.820312 181.84375 257.644531 184.523438 259.90625 Z M 187.53125 91.90625 C 220.25 91.90625 246.867188 118.53125 246.867188 151.265625 C 246.867188 193.277344 200 238.753906 187.53125 250.105469 C 175.066406 238.753906 128.199219 193.277344 128.199219 151.265625 C 128.199219 118.535156 154.816406 91.90625 187.53125 91.90625 Z M 187.53125 91.90625 " fill-opacity="1" fill-rule="nonzero"/></g><path fill="rgb(20.779419%, 87.449646%, 85.488892%)" d="M 221.351562 149.726562 C 221.351562 131.070312 206.179688 115.894531 187.53125 115.894531 C 168.886719 115.894531 153.714844 131.070312 153.714844 149.726562 C 153.714844 168.378906 168.886719 183.558594 187.53125 183.558594 C 206.179688 183.558594 221.351562 168.382812 221.351562 149.726562 Z M 163.042969 149.726562 C 163.042969 136.214844 174.027344 125.226562 187.53125 125.226562 C 201.035156 125.226562 212.023438 136.214844 212.023438 149.726562 C 212.023438 163.234375 201.035156 174.226562 187.53125 174.226562 C 174.027344 174.226562 163.042969 163.234375 163.042969 149.726562 Z M 163.042969 149.726562 " fill-opacity="1" fill-rule="nonzero"/><g clip-path="url(#id2)"><path fill="rgb(20.779419%, 87.449646%, 85.488892%)" d="M 225.34375 236.46875 C 222.789062 236.09375 220.433594 237.890625 220.078125 240.445312 C 219.726562 242.996094 221.503906 245.355469 224.058594 245.710938 C 256.136719 250.171875 268.089844 258.84375 268.089844 263.261719 C 268.089844 271.410156 236.710938 283.238281 187.542969 283.238281 C 138.359375 283.238281 106.976562 271.410156 106.976562 263.261719 C 106.976562 258.859375 118.9375 250.195312 151.035156 245.710938 C 153.585938 245.355469 155.367188 242.996094 155.007812 240.445312 C 154.652344 237.890625 152.292969 236.089844 149.742188 236.46875 C 134.078125 238.65625 97.644531 245.648438 97.644531 263.261719 C 97.644531 282.503906 142.871094 292.570312 187.542969 292.570312 C 232.207031 292.570312 277.421875 282.503906 277.421875 263.261719 C 277.421875 245.613281 241 238.644531 225.34375 236.46875 Z M 225.34375 236.46875 " fill-opacity="1" fill-rule="nonzero"/></g></svg>