<svg xmlns="http://www.w3.org/2000/svg" xmlns:xlink="http://www.w3.org/1999/xlink" width="500" zoomAndPan="magnify" viewBox="0 0 375 374.999991" height="500" preserveAspectRatio="xMidYMid meet" version="1.0"><defs><clipPath id="id1"><path d="M 53.1875 53.1875 L 321.6875 53.1875 L 321.6875 321.6875 L 53.1875 321.6875 Z M 53.1875 53.1875 " clip-rule="nonzero"/></clipPath></defs><path fill="rgb(100%, 100%, 100%)" d="M 164.574219 156.808594 C 139.488281 171.292969 177.761719 243.042969 205.210938 227.195312 L 230.660156 271.273438 C 219.082031 277.960938 209.277344 282.175781 195.851562 274.5 C 158.570312 253.191406 117.535156 182.144531 118.703125 139.761719 C 119.109375 125.042969 127.78125 119.277344 139.125 112.726562 Z M 164.574219 156.808594 " fill-opacity="1" fill-rule="evenodd"/><path fill="rgb(100%, 100%, 100%)" d="M 175.09375 155.609375 C 172.382812 157.175781 168.898438 156.242188 167.332031 153.53125 L 143.339844 111.976562 C 141.773438 109.265625 142.707031 105.777344 145.417969 104.210938 L 158.027344 96.933594 C 160.738281 95.367188 164.226562 96.300781 165.792969 99.011719 L 189.785156 140.566406 C 191.347656 143.277344 190.414062 146.765625 187.703125 148.332031 Z M 175.09375 155.609375 " fill-opacity="1" fill-rule="evenodd"/><path fill="rgb(100%, 100%, 100%)" d="M 240.640625 269.140625 C 237.929688 270.703125 234.441406 269.769531 232.875 267.058594 L 208.882812 225.503906 C 207.320312 222.792969 208.253906 219.304688 210.964844 217.738281 L 223.574219 210.460938 C 226.285156 208.894531 229.773438 209.828125 231.335938 212.539062 L 255.328125 254.09375 C 256.894531 256.804688 255.960938 260.292969 253.25 261.859375 Z M 240.640625 269.140625 " fill-opacity="1" fill-rule="evenodd"/><g clip-path="url(#id1)"><path fill="rgb(100%, 100%, 100%)" d="M 187.394531 53.1875 L 187.394531 53.21875 C 224.46875 53.21875 258.019531 68.230469 282.289062 92.5 C 306.554688 116.769531 321.570312 150.316406 321.570312 187.390625 L 321.601562 187.390625 L 321.601562 187.398438 L 321.570312 187.398438 C 321.570312 224.472656 306.554688 258.023438 282.285156 282.289062 C 258.015625 306.554688 224.46875 321.570312 187.394531 321.570312 L 187.394531 321.601562 L 187.386719 321.601562 L 187.386719 321.570312 C 150.3125 321.570312 116.761719 306.558594 92.496094 282.289062 C 68.230469 258.019531 53.214844 224.46875 53.214844 187.394531 L 53.183594 187.394531 L 53.183594 187.390625 L 53.214844 187.390625 C 53.214844 150.316406 68.230469 116.765625 92.5 92.5 C 116.765625 68.230469 150.316406 53.21875 187.390625 53.21875 L 187.390625 53.1875 Z M 187.394531 69.195312 L 187.394531 69.226562 L 187.390625 69.226562 L 187.390625 69.195312 C 154.785156 69.195312 125.242188 82.4375 103.839844 103.839844 C 82.441406 125.242188 69.195312 154.789062 69.195312 187.390625 L 69.226562 187.390625 L 69.226562 187.398438 L 69.195312 187.398438 C 69.195312 220 82.4375 249.542969 103.839844 270.945312 C 125.242188 292.347656 154.789062 305.59375 187.394531 305.59375 L 187.394531 305.5625 L 187.398438 305.5625 L 187.398438 305.59375 C 220.003906 305.589844 249.546875 292.351562 270.949219 270.949219 C 292.347656 249.542969 305.59375 219.996094 305.59375 187.394531 L 305.5625 187.394531 L 305.5625 187.386719 L 305.59375 187.386719 C 305.59375 154.785156 292.351562 125.242188 270.949219 103.839844 C 249.546875 82.4375 220 69.195312 187.394531 69.195312 Z M 187.394531 69.195312 " fill-opacity="1" fill-rule="nonzero"/></g></svg>