<svg xmlns="http://www.w3.org/2000/svg" xmlns:xlink="http://www.w3.org/1999/xlink" width="800" zoomAndPan="magnify" viewBox="0 0 600 149.999998" height="200" preserveAspectRatio="xMidYMid meet" version="1.0"><defs><g/></defs><g fill="rgb(20.779419%, 87.449646%, 85.488892%)" fill-opacity="1"><g transform="translate(66.621095, 113.999995)"><g><path d="M 75.59375 0 L 75.59375 -46.640625 C 72.625 -41.253906 70.203125 -36.878906 68.328125 -33.515625 C 61.765625 -22.035156 55.359375 -16.296875 49.109375 -16.296875 C 42.929688 -16.296875 36.5625 -22 30 -33.40625 C 27.5 -37.78125 25.039062 -42.191406 22.625 -46.640625 L 22.625 0 L 3.75 0 L 3.75 -60.828125 C 3.75 -64.890625 5.191406 -68.363281 8.078125 -71.25 C 10.972656 -74.144531 14.453125 -75.59375 18.515625 -75.59375 C 25.472656 -75.59375 32.816406 -69.03125 40.546875 -55.90625 C 43.359375 -50.820312 46.210938 -45.742188 49.109375 -40.671875 C 51.523438 -45.046875 53.984375 -49.421875 56.484375 -53.796875 C 60.234375 -60.359375 63.632812 -65.28125 66.6875 -68.5625 C 71.0625 -73.25 75.394531 -75.59375 79.6875 -75.59375 C 83.75 -75.59375 87.222656 -74.144531 90.109375 -71.25 C 93.003906 -68.363281 94.453125 -64.890625 94.453125 -60.828125 L 94.453125 0 Z M 75.59375 0 "/></g></g><g transform="translate(164.824215, 113.999995)"><g><path d="M 3.75 -45.359375 L 3.75 -54.84375 C 3.75 -57.34375 4.6875 -59.53125 6.5625 -61.40625 C 8.4375 -63.28125 10.664062 -64.21875 13.25 -64.21875 L 50.984375 -64.21875 C 53.640625 -64.21875 55.882812 -63.300781 57.71875 -61.46875 C 59.550781 -59.632812 60.46875 -57.425781 60.46875 -54.84375 L 60.46875 -45.359375 Z M 50.984375 0 L 13.25 0 C 10.664062 0 8.4375 -0.9375 6.5625 -2.8125 C 4.6875 -4.6875 3.75 -6.914062 3.75 -9.5 L 3.75 -41.609375 L 22.734375 -41.609375 L 22.734375 -18.875 L 41.609375 -18.875 L 41.609375 -41.609375 L 60.46875 -41.609375 L 60.46875 -9.5 C 60.46875 -6.914062 59.53125 -4.6875 57.65625 -2.8125 C 55.78125 -0.9375 53.554688 0 50.984375 0 Z M 50.984375 0 "/></g></g><g transform="translate(229.042961, 113.999995)"><g><path d="M 41.609375 0 L 41.609375 -45.359375 L 3.75 -45.359375 L 3.75 -64.21875 L 50.984375 -64.21875 C 53.554688 -64.21875 55.78125 -63.316406 57.65625 -61.515625 C 59.53125 -59.722656 60.46875 -57.5 60.46875 -54.84375 L 60.46875 0 Z M 3.75 0 L 3.75 -41.609375 L 22.734375 -41.609375 L 22.734375 0 Z M 3.75 0 "/></g></g><g transform="translate(293.261707, 113.999995)"><g><path d="M 7.5 -45.359375 L 7.5 -54.84375 C 7.5 -57.34375 8.4375 -59.53125 10.3125 -61.40625 C 12.1875 -63.28125 14.414062 -64.21875 17 -64.21875 L 51.5625 -64.21875 L 64.21875 -45.359375 Z M 54.84375 0 L 16.40625 0 L 3.75 -18.875 L 36.09375 -18.875 L 11.71875 -41.609375 L 38.90625 -41.609375 C 45 -36.367188 51.09375 -31.171875 57.1875 -26.015625 C 61.875 -21.328125 64.21875 -17.695312 64.21875 -15.125 L 64.21875 -9.5 C 64.21875 -7.15625 63.222656 -4.984375 61.234375 -2.984375 C 59.242188 -0.992188 57.113281 0 54.84375 0 Z M 54.84375 0 "/></g></g><g transform="translate(360.058579, 113.999995)"><g><path d="M 33.984375 -45.359375 L 33.984375 -64.21875 L 36.453125 -64.21875 L 49.109375 -45.359375 Z M 11.375 0 L 11.375 -45.359375 L 3.75 -45.359375 L 3.75 -64.21875 L 11.375 -64.21875 L 11.375 -86.953125 L 30.234375 -74.296875 L 30.234375 0 Z M 11.375 0 "/></g></g><g transform="translate(409.277326, 113.999995)"><g><path d="M 51.09375 -22.734375 L 39.140625 -22.734375 L 26.484375 -41.609375 L 60.46875 -41.609375 L 60.46875 -32.109375 C 60.46875 -29.535156 59.550781 -27.328125 57.71875 -25.484375 C 55.882812 -23.648438 53.675781 -22.734375 51.09375 -22.734375 Z M 51.6875 0 L 13.25 0 C 10.664062 0 8.4375 -0.9375 6.5625 -2.8125 C 4.6875 -4.6875 3.75 -6.914062 3.75 -9.5 L 3.75 -54.84375 C 3.75 -57.34375 4.6875 -59.53125 6.5625 -61.40625 C 8.4375 -63.28125 10.664062 -64.21875 13.25 -64.21875 L 51.09375 -64.21875 C 53.675781 -64.21875 55.882812 -63.300781 57.71875 -61.46875 C 59.550781 -59.632812 60.46875 -57.425781 60.46875 -54.84375 L 60.46875 -45.359375 L 22.734375 -45.359375 L 22.734375 -18.875 L 64.34375 -18.875 Z M 51.6875 0 "/></g></g><g transform="translate(477.363259, 113.999995)"><g><path d="M 26.484375 -45.359375 L 26.484375 -64.21875 L 47.8125 -64.21875 L 60.46875 -45.359375 Z M 3.75 0 L 3.75 -64.21875 L 22.734375 -64.21875 L 22.734375 0 Z M 3.75 0 "/></g></g></g></svg>