<svg xmlns="http://www.w3.org/2000/svg" xmlns:xlink="http://www.w3.org/1999/xlink" width="500" zoomAndPan="magnify" viewBox="0 0 375 374.999991" height="500" preserveAspectRatio="xMidYMid meet" version="1.0"><defs><clipPath id="id1"><path d="M 75.03125 75.03125 L 300.03125 75.03125 L 300.03125 300.03125 L 75.03125 300.03125 Z M 75.03125 75.03125 " clip-rule="nonzero"/></clipPath></defs><g clip-path="url(#id1)"><path fill="rgb(100%, 100%, 100%)" d="M 187.53125 75.03125 C 125.484375 75.03125 75.03125 125.484375 75.03125 187.53125 C 75.03125 249.578125 125.484375 300.03125 187.53125 300.03125 C 249.578125 300.03125 300.03125 249.578125 300.03125 187.53125 C 300.03125 125.484375 249.414062 75.03125 187.53125 75.03125 Z M 187.53125 293.335938 C 129.074219 293.335938 81.5625 245.820312 81.5625 187.53125 C 81.5625 129.074219 129.074219 81.5625 187.53125 81.5625 C 245.984375 81.5625 293.5 129.074219 293.5 187.53125 C 293.335938 245.820312 245.820312 293.335938 187.53125 293.335938 Z M 187.53125 293.335938 " fill-opacity="1" fill-rule="nonzero"/></g><path fill="rgb(100%, 100%, 100%)" d="M 257.25 140.996094 C 256.925781 140.667969 256.597656 140.34375 256.269531 140.015625 C 256.269531 140.015625 256.269531 139.851562 256.109375 139.851562 C 255.617188 139.6875 255.292969 139.527344 254.800781 139.527344 L 120.257812 139.527344 C 119.769531 139.527344 119.277344 139.6875 118.953125 139.851562 C 118.953125 139.851562 118.789062 140.015625 118.789062 140.015625 C 118.300781 140.179688 117.972656 140.503906 117.808594 140.996094 C 117.644531 141.160156 117.644531 141.160156 117.644531 141.320312 C 117.320312 141.8125 117.15625 142.300781 117.15625 142.953125 L 117.15625 216.105469 C 117.15625 226.71875 125.648438 235.207031 136.261719 235.207031 L 239.125 235.207031 C 249.738281 235.207031 258.230469 226.554688 258.230469 216.105469 L 258.230469 142.953125 C 258.230469 142.300781 258.066406 141.8125 257.742188 141.320312 C 257.414062 141.320312 257.414062 141.160156 257.25 140.996094 Z M 245.496094 146.21875 L 187.53125 193.410156 L 129.402344 146.21875 C 129.402344 146.21875 245.496094 146.21875 245.496094 146.21875 Z M 251.371094 216.105469 C 251.371094 222.960938 245.65625 228.675781 238.800781 228.675781 L 135.933594 228.675781 C 129.074219 228.675781 123.359375 222.960938 123.359375 216.105469 L 123.359375 149.8125 L 185.246094 200.101562 C 186.386719 201.082031 188.183594 201.082031 189.328125 200.101562 L 251.371094 149.8125 C 251.371094 149.8125 251.371094 216.105469 251.371094 216.105469 Z M 251.371094 216.105469 " fill-opacity="1" fill-rule="nonzero"/></svg>