<svg xmlns="http://www.w3.org/2000/svg" xmlns:xlink="http://www.w3.org/1999/xlink" width="800" zoomAndPan="magnify" viewBox="0 0 600 149.999998" height="200" preserveAspectRatio="xMidYMid meet" version="1.0"><defs><g/></defs><g fill="rgb(73.329163%, 17.649841%, 23.139954%)" fill-opacity="1"><g transform="translate(51.562502, 113.999995)"><g><path d="M 54.84375 -22.734375 L 22.734375 -22.734375 L 22.734375 0 L 3.75 0 L 3.75 -52.96875 L 22.734375 -52.96875 L 22.734375 -41.609375 L 45.359375 -41.609375 L 45.359375 -56.71875 L 3.75 -56.71875 L 3.75 -75.59375 L 54.84375 -75.59375 C 56.71875 -75.59375 58.75 -74.5 60.9375 -72.3125 C 63.125 -70.125 64.21875 -68.09375 64.21875 -66.21875 L 64.21875 -32.109375 C 64.21875 -29.765625 63.238281 -27.613281 61.28125 -25.65625 C 59.332031 -23.707031 57.1875 -22.734375 54.84375 -22.734375 Z M 54.84375 -22.734375 "/></g></g><g transform="translate(119.531248, 113.999995)"><g><path d="M 26.484375 -45.359375 L 26.484375 -64.21875 L 47.8125 -64.21875 L 60.46875 -45.359375 Z M 3.75 0 L 3.75 -64.21875 L 22.734375 -64.21875 L 22.734375 0 Z M 3.75 0 "/></g></g><g transform="translate(175.54687, 113.999995)"><g><path d="M 3.75 -45.359375 L 3.75 -54.84375 C 3.75 -57.34375 4.6875 -59.53125 6.5625 -61.40625 C 8.4375 -63.28125 10.664062 -64.21875 13.25 -64.21875 L 50.984375 -64.21875 C 53.640625 -64.21875 55.882812 -63.300781 57.71875 -61.46875 C 59.550781 -59.632812 60.46875 -57.425781 60.46875 -54.84375 L 60.46875 -45.359375 Z M 50.984375 0 L 13.25 0 C 10.664062 0 8.4375 -0.9375 6.5625 -2.8125 C 4.6875 -4.6875 3.75 -6.914062 3.75 -9.5 L 3.75 -41.609375 L 22.734375 -41.609375 L 22.734375 -18.875 L 41.609375 -18.875 L 41.609375 -41.609375 L 60.46875 -41.609375 L 60.46875 -9.5 C 60.46875 -6.914062 59.53125 -4.6875 57.65625 -2.8125 C 55.78125 -0.9375 53.554688 0 50.984375 0 Z M 50.984375 0 "/></g></g><g transform="translate(239.765617, 113.999995)"><g><path d="M 3.75 -45.359375 L 3.75 -54.84375 C 3.75 -57.34375 4.6875 -59.53125 6.5625 -61.40625 C 8.4375 -63.28125 10.664062 -64.21875 13.25 -64.21875 L 41.609375 -64.21875 L 41.609375 -86.953125 L 60.46875 -86.953125 L 60.46875 -45.359375 Z M 13.25 0 C 10.664062 0 8.4375 -0.9375 6.5625 -2.8125 C 4.6875 -4.6875 3.75 -6.914062 3.75 -9.5 L 3.75 -41.609375 L 22.734375 -41.609375 L 22.734375 -18.875 L 41.609375 -18.875 L 41.609375 -41.609375 L 60.46875 -41.609375 L 60.46875 0 Z M 13.25 0 "/></g></g><g transform="translate(303.984363, 113.999995)"><g><path d="M 13.25 0 C 10.664062 0 8.4375 -0.9375 6.5625 -2.8125 C 4.6875 -4.6875 3.75 -6.914062 3.75 -9.5 L 3.75 -64.21875 L 22.734375 -64.21875 L 22.734375 -18.875 L 41.609375 -18.875 L 41.609375 -64.21875 L 60.46875 -64.21875 L 60.46875 0 Z M 13.25 0 "/></g></g><g transform="translate(368.203109, 113.999995)"><g><path d="M 33.984375 -45.359375 L 33.984375 -64.21875 L 36.453125 -64.21875 L 49.109375 -45.359375 Z M 11.375 0 L 11.375 -45.359375 L 3.75 -45.359375 L 3.75 -64.21875 L 11.375 -64.21875 L 11.375 -86.953125 L 30.234375 -74.296875 L 30.234375 0 Z M 11.375 0 "/></g></g><g transform="translate(417.421856, 113.999995)"><g><path d="M 3.75 -45.359375 L 3.75 -54.84375 C 3.75 -57.34375 4.6875 -59.53125 6.5625 -61.40625 C 8.4375 -63.28125 10.664062 -64.21875 13.25 -64.21875 L 50.984375 -64.21875 C 53.640625 -64.21875 55.882812 -63.300781 57.71875 -61.46875 C 59.550781 -59.632812 60.46875 -57.425781 60.46875 -54.84375 L 60.46875 -45.359375 Z M 50.984375 0 L 13.25 0 C 10.664062 0 8.4375 -0.9375 6.5625 -2.8125 C 4.6875 -4.6875 3.75 -6.914062 3.75 -9.5 L 3.75 -41.609375 L 22.734375 -41.609375 L 22.734375 -18.875 L 41.609375 -18.875 L 41.609375 -41.609375 L 60.46875 -41.609375 L 60.46875 -9.5 C 60.46875 -6.914062 59.53125 -4.6875 57.65625 -2.8125 C 55.78125 -0.9375 53.554688 0 50.984375 0 Z M 50.984375 0 "/></g></g><g transform="translate(481.640603, 113.999995)"><g><path d="M 7.5 -45.359375 L 7.5 -54.84375 C 7.5 -57.34375 8.4375 -59.53125 10.3125 -61.40625 C 12.1875 -63.28125 14.414062 -64.21875 17 -64.21875 L 51.5625 -64.21875 L 64.21875 -45.359375 Z M 54.84375 0 L 16.40625 0 L 3.75 -18.875 L 36.09375 -18.875 L 11.71875 -41.609375 L 38.90625 -41.609375 C 45 -36.367188 51.09375 -31.171875 57.1875 -26.015625 C 61.875 -21.328125 64.21875 -17.695312 64.21875 -15.125 L 64.21875 -9.5 C 64.21875 -7.15625 63.222656 -4.984375 61.234375 -2.984375 C 59.242188 -0.992188 57.113281 0 54.84375 0 Z M 54.84375 0 "/></g></g></g></svg>