<svg xmlns="http://www.w3.org/2000/svg" xmlns:xlink="http://www.w3.org/1999/xlink" width="1920" zoomAndPan="magnify" viewBox="0 0 1440 149.999998" height="200" preserveAspectRatio="xMidYMid meet" version="1.0"><defs><g/></defs><g fill="rgb(64.709473%, 19.999695%, 22.349548%)" fill-opacity="1"><g transform="translate(64.180056, 114.121613)"><g><path d="M 53.015625 0 L 53.015625 -11.40625 L 30.09375 -11.40625 L 22.6875 0 L 0.125 0 L 44.671875 -68.765625 C 47.722656 -73.472656 51.914062 -75.828125 57.25 -75.828125 C 61.25 -75.828125 64.71875 -74.351562 67.65625 -71.40625 C 70.59375 -68.46875 72.0625 -65.003906 72.0625 -61.015625 L 72.0625 -34.09375 L 53.015625 -34.09375 L 53.015625 -46.78125 L 42.203125 -30.328125 L 72.0625 -30.328125 L 72.0625 0 Z M 53.015625 0 "/></g></g><g transform="translate(140.001693, 114.121613)"><g><path d="M 3.765625 -45.5 L 3.765625 -55.015625 C 3.765625 -57.523438 4.703125 -59.71875 6.578125 -61.59375 C 8.460938 -63.476562 10.695312 -64.421875 13.28125 -64.421875 L 41.734375 -64.421875 L 41.734375 -87.21875 L 60.65625 -87.21875 L 60.65625 -45.5 Z M 13.28125 0 C 10.695312 0 8.460938 -0.9375 6.578125 -2.8125 C 4.703125 -4.695312 3.765625 -6.929688 3.765625 -9.515625 L 3.765625 -41.734375 L 22.8125 -41.734375 L 22.8125 -18.921875 L 41.734375 -18.921875 L 41.734375 -41.734375 L 60.65625 -41.734375 L 60.65625 0 Z M 13.28125 0 "/></g></g><g transform="translate(204.420696, 114.121613)"><g><path d="M 56.890625 0 L 56.890625 -45.5 L 3.765625 -45.5 L 3.765625 -64.421875 L 66.421875 -64.421875 C 69.003906 -64.421875 71.21875 -63.5 73.0625 -61.65625 C 74.90625 -59.8125 75.828125 -57.597656 75.828125 -55.015625 L 75.828125 0 Z M 30.328125 0 L 30.328125 -41.734375 L 49.25 -41.734375 L 49.25 0 Z M 3.765625 0 L 3.765625 -41.734375 L 22.8125 -41.734375 L 22.8125 0 Z M 3.765625 0 "/></g></g><g transform="translate(284.004026, 114.121613)"><g><path d="M 5.640625 0 L 5.640625 -64.421875 L 24.6875 -64.421875 L 24.6875 0 Z M 5.640625 -72.0625 L 5.640625 -87.21875 L 24.6875 -87.21875 L 24.6875 -72.0625 Z M 5.640625 -72.0625 "/></g></g><g transform="translate(314.332681, 114.121613)"><g><path d="M 41.734375 0 L 41.734375 -45.5 L 3.765625 -45.5 L 3.765625 -64.421875 L 51.140625 -64.421875 C 53.722656 -64.421875 55.953125 -63.519531 57.828125 -61.71875 C 59.710938 -59.914062 60.65625 -57.679688 60.65625 -55.015625 L 60.65625 0 Z M 3.765625 0 L 3.765625 -41.734375 L 22.8125 -41.734375 L 22.8125 0 Z M 3.765625 0 "/></g></g><g transform="translate(378.751684, 114.121613)"><g><path d="M 5.640625 0 L 5.640625 -64.421875 L 24.6875 -64.421875 L 24.6875 0 Z M 5.640625 -72.0625 L 5.640625 -87.21875 L 24.6875 -87.21875 L 24.6875 -72.0625 Z M 5.640625 -72.0625 "/></g></g><g transform="translate(409.080339, 114.121613)"><g><path d="M 7.53125 -45.5 L 7.53125 -55.015625 C 7.53125 -57.523438 8.46875 -59.71875 10.34375 -61.59375 C 12.226562 -63.476562 14.460938 -64.421875 17.046875 -64.421875 L 51.71875 -64.421875 L 64.421875 -45.5 Z M 55.015625 0 L 16.453125 0 L 3.765625 -18.921875 L 36.203125 -18.921875 L 11.75 -41.734375 L 39.03125 -41.734375 C 45.144531 -36.484375 51.253906 -31.269531 57.359375 -26.09375 C 62.066406 -21.394531 64.421875 -17.753906 64.421875 -15.171875 L 64.421875 -9.515625 C 64.421875 -7.171875 63.421875 -5 61.421875 -3 C 59.421875 -1 57.285156 0 55.015625 0 Z M 55.015625 0 "/></g></g><g transform="translate(476.085507, 114.121613)"><g><path d="M 34.09375 -45.5 L 34.09375 -64.421875 L 36.5625 -64.421875 L 49.25 -45.5 Z M 11.40625 0 L 11.40625 -45.5 L 3.765625 -45.5 L 3.765625 -64.421875 L 11.40625 -64.421875 L 11.40625 -87.21875 L 30.328125 -74.53125 L 30.328125 0 Z M 11.40625 0 "/></g></g><g transform="translate(525.457735, 114.121613)"><g><path d="M 26.5625 -45.5 L 26.5625 -64.421875 L 47.96875 -64.421875 L 60.65625 -45.5 Z M 3.765625 0 L 3.765625 -64.421875 L 22.8125 -64.421875 L 22.8125 0 Z M 3.765625 0 "/></g></g><g transform="translate(581.648034, 114.121613)"><g><path d="M 3.765625 -45.5 L 16.453125 -64.421875 L 51.140625 -64.421875 C 53.796875 -64.421875 56.046875 -63.5 57.890625 -61.65625 C 59.734375 -59.8125 60.65625 -57.597656 60.65625 -55.015625 L 60.65625 -45.5 Z M 13.28125 0 C 10.695312 0 8.460938 -0.9375 6.578125 -2.8125 C 4.703125 -4.695312 3.765625 -6.929688 3.765625 -9.515625 L 3.765625 -32.203125 C 3.765625 -34.796875 4.703125 -37.03125 6.578125 -38.90625 C 8.460938 -40.789062 10.695312 -41.734375 13.28125 -41.734375 L 25.28125 -41.734375 L 37.96875 -22.8125 L 22.8125 -22.8125 L 22.8125 -18.921875 L 41.734375 -18.921875 L 41.734375 -41.734375 L 60.65625 -41.734375 L 60.65625 0 Z M 13.28125 0 "/></g></g><g transform="translate(646.067037, 114.121613)"><g><path d="M 3.765625 -45.5 L 3.765625 -55.015625 C 3.765625 -56.265625 4.019531 -57.457031 4.53125 -58.59375 C 5.039062 -59.738281 5.722656 -60.738281 6.578125 -61.59375 C 7.441406 -62.457031 8.441406 -63.144531 9.578125 -63.65625 C 10.710938 -64.164062 11.945312 -64.421875 13.28125 -64.421875 L 47.96875 -64.421875 L 60.65625 -45.5 Z M 47.96875 0 L 34.796875 0 L 32.796875 7.53125 C 34.753906 8.695312 36.203125 10.203125 37.140625 12.046875 C 38.085938 13.890625 38.519531 15.769531 38.4375 17.6875 C 38.363281 19.613281 37.773438 21.4375 36.671875 23.15625 C 35.578125 24.882812 33.972656 26.253906 31.859375 27.265625 L 20.453125 27.265625 C 22.566406 26.097656 24.171875 24.648438 25.265625 22.921875 C 26.367188 21.203125 26.957031 19.421875 27.03125 17.578125 C 27.113281 15.734375 26.703125 13.925781 25.796875 12.15625 C 24.898438 10.394531 23.472656 8.851562 21.515625 7.53125 L 23.515625 0 L 13.28125 0 C 10.695312 0 8.460938 -0.9375 6.578125 -2.8125 C 4.703125 -4.695312 3.765625 -6.929688 3.765625 -9.515625 L 3.765625 -41.734375 L 22.8125 -41.734375 L 22.8125 -18.921875 L 60.65625 -18.921875 Z M 47.96875 0 "/></g></g><g transform="translate(710.48604, 114.121613)"><g><path d="M 3.765625 -45.5 L 16.453125 -64.421875 L 51.140625 -64.421875 C 53.796875 -64.421875 56.046875 -63.5 57.890625 -61.65625 C 59.734375 -59.8125 60.65625 -57.597656 60.65625 -55.015625 L 60.65625 -45.5 Z M 13.28125 0 C 10.695312 0 8.460938 -0.9375 6.578125 -2.8125 C 4.703125 -4.695312 3.765625 -6.929688 3.765625 -9.515625 L 3.765625 -32.203125 C 3.765625 -34.796875 4.703125 -37.03125 6.578125 -38.90625 C 8.460938 -40.789062 10.695312 -41.734375 13.28125 -41.734375 L 25.28125 -41.734375 L 37.96875 -22.8125 L 22.8125 -22.8125 L 22.8125 -18.921875 L 41.734375 -18.921875 L 41.734375 -41.734375 L 60.65625 -41.734375 L 60.65625 0 Z M 46.078125 -73.359375 C 43.890625 -73.359375 41.421875 -73.941406 38.671875 -75.109375 C 32.398438 -77.773438 28.328125 -79.109375 26.453125 -79.109375 C 24.335938 -79.109375 22.257812 -78.40625 20.21875 -77 C 18.96875 -76.132812 17.285156 -74.601562 15.171875 -72.40625 L 15.171875 -83.8125 C 17.285156 -85.925781 18.96875 -87.414062 20.21875 -88.28125 C 22.414062 -89.769531 24.53125 -90.515625 26.5625 -90.515625 C 28.757812 -90.515625 31.226562 -89.925781 33.96875 -88.75 C 40.164062 -86.082031 44.203125 -84.75 46.078125 -84.75 C 47.878906 -84.75 49.835938 -85.378906 51.953125 -86.640625 C 53.285156 -87.421875 54.929688 -88.675781 56.890625 -90.40625 L 56.890625 -79.109375 C 55.171875 -77.617188 53.488281 -76.367188 51.84375 -75.359375 C 49.644531 -74.023438 47.722656 -73.359375 46.078125 -73.359375 Z M 46.078125 -73.359375 "/></g></g><g transform="translate(774.905043, 114.121613)"><g><path d="M 3.765625 -45.5 L 3.765625 -55.015625 C 3.765625 -57.523438 4.703125 -59.71875 6.578125 -61.59375 C 8.460938 -63.476562 10.695312 -64.421875 13.28125 -64.421875 L 51.140625 -64.421875 C 53.796875 -64.421875 56.046875 -63.5 57.890625 -61.65625 C 59.734375 -59.8125 60.65625 -57.597656 60.65625 -55.015625 L 60.65625 -45.5 Z M 51.140625 0 L 13.28125 0 C 10.695312 0 8.460938 -0.9375 6.578125 -2.8125 C 4.703125 -4.695312 3.765625 -6.929688 3.765625 -9.515625 L 3.765625 -41.734375 L 22.8125 -41.734375 L 22.8125 -18.921875 L 41.734375 -18.921875 L 41.734375 -41.734375 L 60.65625 -41.734375 L 60.65625 -9.515625 C 60.65625 -6.929688 59.710938 -4.695312 57.828125 -2.8125 C 55.953125 -0.9375 53.722656 0 51.140625 0 Z M 51.140625 0 "/></g></g><g transform="translate(839.324046, 114.121613)"><g/></g></g><g fill="rgb(20.779419%, 87.449646%, 85.488892%)" fill-opacity="1"><g transform="translate(907.614462, 114.121613)"><g><path d="M 75.828125 0 L 75.828125 -46.78125 C 72.847656 -41.375 70.414062 -36.988281 68.53125 -33.625 C 61.945312 -22.101562 55.519531 -16.34375 49.25 -16.34375 C 43.0625 -16.34375 36.675781 -22.0625 30.09375 -33.5 C 27.582031 -37.882812 25.113281 -42.3125 22.6875 -46.78125 L 22.6875 0 L 3.765625 0 L 3.765625 -61.015625 C 3.765625 -65.085938 5.210938 -68.570312 8.109375 -71.46875 C 11.003906 -74.375 14.492188 -75.828125 18.578125 -75.828125 C 25.546875 -75.828125 32.910156 -69.242188 40.671875 -56.078125 C 43.492188 -50.984375 46.351562 -45.890625 49.25 -40.796875 C 51.6875 -45.179688 54.15625 -49.566406 56.65625 -53.953125 C 60.414062 -60.535156 63.828125 -65.472656 66.890625 -68.765625 C 71.273438 -73.472656 75.625 -75.828125 79.9375 -75.828125 C 84.007812 -75.828125 87.492188 -74.375 90.390625 -71.46875 C 93.296875 -68.570312 94.75 -65.085938 94.75 -61.015625 L 94.75 0 Z M 75.828125 0 "/></g></g><g transform="translate(1006.123813, 114.121613)"><g><path d="M 3.765625 -45.5 L 3.765625 -55.015625 C 3.765625 -57.523438 4.703125 -59.71875 6.578125 -61.59375 C 8.460938 -63.476562 10.695312 -64.421875 13.28125 -64.421875 L 51.140625 -64.421875 C 53.796875 -64.421875 56.046875 -63.5 57.890625 -61.65625 C 59.734375 -59.8125 60.65625 -57.597656 60.65625 -55.015625 L 60.65625 -45.5 Z M 51.140625 0 L 13.28125 0 C 10.695312 0 8.460938 -0.9375 6.578125 -2.8125 C 4.703125 -4.695312 3.765625 -6.929688 3.765625 -9.515625 L 3.765625 -41.734375 L 22.8125 -41.734375 L 22.8125 -18.921875 L 41.734375 -18.921875 L 41.734375 -41.734375 L 60.65625 -41.734375 L 60.65625 -9.515625 C 60.65625 -6.929688 59.710938 -4.695312 57.828125 -2.8125 C 55.953125 -0.9375 53.722656 0 51.140625 0 Z M 51.140625 0 "/></g></g><g transform="translate(1070.542816, 114.121613)"><g><path d="M 41.734375 0 L 41.734375 -45.5 L 3.765625 -45.5 L 3.765625 -64.421875 L 51.140625 -64.421875 C 53.722656 -64.421875 55.953125 -63.519531 57.828125 -61.71875 C 59.710938 -59.914062 60.65625 -57.679688 60.65625 -55.015625 L 60.65625 0 Z M 3.765625 0 L 3.765625 -41.734375 L 22.8125 -41.734375 L 22.8125 0 Z M 3.765625 0 "/></g></g><g transform="translate(1134.961819, 114.121613)"><g><path d="M 7.53125 -45.5 L 7.53125 -55.015625 C 7.53125 -57.523438 8.46875 -59.71875 10.34375 -61.59375 C 12.226562 -63.476562 14.460938 -64.421875 17.046875 -64.421875 L 51.71875 -64.421875 L 64.421875 -45.5 Z M 55.015625 0 L 16.453125 0 L 3.765625 -18.921875 L 36.203125 -18.921875 L 11.75 -41.734375 L 39.03125 -41.734375 C 45.144531 -36.484375 51.253906 -31.269531 57.359375 -26.09375 C 62.066406 -21.394531 64.421875 -17.753906 64.421875 -15.171875 L 64.421875 -9.515625 C 64.421875 -7.171875 63.421875 -5 61.421875 -3 C 59.421875 -1 57.285156 0 55.015625 0 Z M 55.015625 0 "/></g></g><g transform="translate(1201.966987, 114.121613)"><g><path d="M 34.09375 -45.5 L 34.09375 -64.421875 L 36.5625 -64.421875 L 49.25 -45.5 Z M 11.40625 0 L 11.40625 -45.5 L 3.765625 -45.5 L 3.765625 -64.421875 L 11.40625 -64.421875 L 11.40625 -87.21875 L 30.328125 -74.53125 L 30.328125 0 Z M 11.40625 0 "/></g></g><g transform="translate(1251.339215, 114.121613)"><g><path d="M 51.25 -22.8125 L 39.265625 -22.8125 L 26.5625 -41.734375 L 60.65625 -41.734375 L 60.65625 -32.203125 C 60.65625 -29.617188 59.734375 -27.40625 57.890625 -25.5625 C 56.046875 -23.726562 53.832031 -22.8125 51.25 -22.8125 Z M 51.84375 0 L 13.28125 0 C 10.695312 0 8.460938 -0.9375 6.578125 -2.8125 C 4.703125 -4.695312 3.765625 -6.929688 3.765625 -9.515625 L 3.765625 -55.015625 C 3.765625 -57.523438 4.703125 -59.71875 6.578125 -61.59375 C 8.460938 -63.476562 10.695312 -64.421875 13.28125 -64.421875 L 51.25 -64.421875 C 53.832031 -64.421875 56.046875 -63.5 57.890625 -61.65625 C 59.734375 -59.8125 60.65625 -57.597656 60.65625 -55.015625 L 60.65625 -45.5 L 22.8125 -45.5 L 22.8125 -18.921875 L 64.53125 -18.921875 Z M 51.84375 0 "/></g></g><g transform="translate(1319.637465, 114.121613)"><g><path d="M 26.5625 -45.5 L 26.5625 -64.421875 L 47.96875 -64.421875 L 60.65625 -45.5 Z M 3.765625 0 L 3.765625 -64.421875 L 22.8125 -64.421875 L 22.8125 0 Z M 3.765625 0 "/></g></g></g></svg>