<svg xmlns="http://www.w3.org/2000/svg" xmlns:xlink="http://www.w3.org/1999/xlink" width="1120" zoomAndPan="magnify" viewBox="0 0 840 149.999998" height="200" preserveAspectRatio="xMidYMid meet" version="1.0"><defs><g/></defs><g fill="rgb(73.329163%, 17.649841%, 23.139954%)" fill-opacity="1"><g transform="translate(33.632818, 113.999995)"><g><path d="M 52.859375 0 L 52.859375 -11.375 L 30 -11.375 L 22.625 0 L 0.125 0 L 44.53125 -68.5625 C 47.582031 -73.25 51.765625 -75.59375 57.078125 -75.59375 C 61.054688 -75.59375 64.507812 -74.125 67.4375 -71.1875 C 70.375 -68.257812 71.84375 -64.804688 71.84375 -60.828125 L 71.84375 -33.984375 L 52.859375 -33.984375 L 52.859375 -46.640625 L 42.078125 -30.234375 L 71.84375 -30.234375 L 71.84375 0 Z M 52.859375 0 "/></g></g><g transform="translate(109.21875, 113.999995)"><g><path d="M 3.75 -45.359375 L 3.75 -54.84375 C 3.75 -57.34375 4.6875 -59.53125 6.5625 -61.40625 C 8.4375 -63.28125 10.664062 -64.21875 13.25 -64.21875 L 41.609375 -64.21875 L 41.609375 -86.953125 L 60.46875 -86.953125 L 60.46875 -45.359375 Z M 13.25 0 C 10.664062 0 8.4375 -0.9375 6.5625 -2.8125 C 4.6875 -4.6875 3.75 -6.914062 3.75 -9.5 L 3.75 -41.609375 L 22.734375 -41.609375 L 22.734375 -18.875 L 41.609375 -18.875 L 41.609375 -41.609375 L 60.46875 -41.609375 L 60.46875 0 Z M 13.25 0 "/></g></g><g transform="translate(173.437497, 113.999995)"><g><path d="M 56.71875 0 L 56.71875 -45.359375 L 3.75 -45.359375 L 3.75 -64.21875 L 66.21875 -64.21875 C 68.789062 -64.21875 70.992188 -63.300781 72.828125 -61.46875 C 74.671875 -59.632812 75.59375 -57.425781 75.59375 -54.84375 L 75.59375 0 Z M 30.234375 0 L 30.234375 -41.609375 L 49.109375 -41.609375 L 49.109375 0 Z M 3.75 0 L 3.75 -41.609375 L 22.734375 -41.609375 L 22.734375 0 Z M 3.75 0 "/></g></g><g transform="translate(252.773429, 113.999995)"><g><path d="M 5.625 0 L 5.625 -64.21875 L 24.609375 -64.21875 L 24.609375 0 Z M 5.625 -71.84375 L 5.625 -86.953125 L 24.609375 -86.953125 L 24.609375 -71.84375 Z M 5.625 -71.84375 "/></g></g><g transform="translate(283.007803, 113.999995)"><g><path d="M 41.609375 0 L 41.609375 -45.359375 L 3.75 -45.359375 L 3.75 -64.21875 L 50.984375 -64.21875 C 53.554688 -64.21875 55.78125 -63.316406 57.65625 -61.515625 C 59.53125 -59.722656 60.46875 -57.5 60.46875 -54.84375 L 60.46875 0 Z M 3.75 0 L 3.75 -41.609375 L 22.734375 -41.609375 L 22.734375 0 Z M 3.75 0 "/></g></g><g transform="translate(347.226549, 113.999995)"><g><path d="M 5.625 0 L 5.625 -64.21875 L 24.609375 -64.21875 L 24.609375 0 Z M 5.625 -71.84375 L 5.625 -86.953125 L 24.609375 -86.953125 L 24.609375 -71.84375 Z M 5.625 -71.84375 "/></g></g><g transform="translate(377.460923, 113.999995)"><g><path d="M 7.5 -45.359375 L 7.5 -54.84375 C 7.5 -57.34375 8.4375 -59.53125 10.3125 -61.40625 C 12.1875 -63.28125 14.414062 -64.21875 17 -64.21875 L 51.5625 -64.21875 L 64.21875 -45.359375 Z M 54.84375 0 L 16.40625 0 L 3.75 -18.875 L 36.09375 -18.875 L 11.71875 -41.609375 L 38.90625 -41.609375 C 45 -36.367188 51.09375 -31.171875 57.1875 -26.015625 C 61.875 -21.328125 64.21875 -17.695312 64.21875 -15.125 L 64.21875 -9.5 C 64.21875 -7.15625 63.222656 -4.984375 61.234375 -2.984375 C 59.242188 -0.992188 57.113281 0 54.84375 0 Z M 54.84375 0 "/></g></g><g transform="translate(444.257795, 113.999995)"><g><path d="M 33.984375 -45.359375 L 33.984375 -64.21875 L 36.453125 -64.21875 L 49.109375 -45.359375 Z M 11.375 0 L 11.375 -45.359375 L 3.75 -45.359375 L 3.75 -64.21875 L 11.375 -64.21875 L 11.375 -86.953125 L 30.234375 -74.296875 L 30.234375 0 Z M 11.375 0 "/></g></g><g transform="translate(493.476542, 113.999995)"><g><path d="M 26.484375 -45.359375 L 26.484375 -64.21875 L 47.8125 -64.21875 L 60.46875 -45.359375 Z M 3.75 0 L 3.75 -64.21875 L 22.734375 -64.21875 L 22.734375 0 Z M 3.75 0 "/></g></g><g transform="translate(549.492164, 113.999995)"><g><path d="M 3.75 -45.359375 L 16.40625 -64.21875 L 50.984375 -64.21875 C 53.640625 -64.21875 55.882812 -63.300781 57.71875 -61.46875 C 59.550781 -59.632812 60.46875 -57.425781 60.46875 -54.84375 L 60.46875 -45.359375 Z M 13.25 0 C 10.664062 0 8.4375 -0.9375 6.5625 -2.8125 C 4.6875 -4.6875 3.75 -6.914062 3.75 -9.5 L 3.75 -32.109375 C 3.75 -34.691406 4.6875 -36.921875 6.5625 -38.796875 C 8.4375 -40.671875 10.664062 -41.609375 13.25 -41.609375 L 25.203125 -41.609375 L 37.859375 -22.734375 L 22.734375 -22.734375 L 22.734375 -18.875 L 41.609375 -18.875 L 41.609375 -41.609375 L 60.46875 -41.609375 L 60.46875 0 Z M 13.25 0 "/></g></g><g transform="translate(613.710911, 113.999995)"><g><path d="M 3.75 -45.359375 L 3.75 -54.84375 C 3.75 -56.09375 4.003906 -57.285156 4.515625 -58.421875 C 5.023438 -59.554688 5.707031 -60.550781 6.5625 -61.40625 C 7.425781 -62.269531 8.421875 -62.953125 9.546875 -63.453125 C 10.679688 -63.960938 11.914062 -64.21875 13.25 -64.21875 L 47.8125 -64.21875 L 60.46875 -45.359375 Z M 47.8125 0 L 34.6875 0 L 32.703125 7.5 C 34.648438 8.675781 36.09375 10.179688 37.03125 12.015625 C 37.96875 13.847656 38.394531 15.722656 38.3125 17.640625 C 38.238281 19.554688 37.65625 21.375 36.5625 23.09375 C 35.46875 24.8125 33.867188 26.175781 31.765625 27.1875 L 20.390625 27.1875 C 22.503906 26.019531 24.109375 24.578125 25.203125 22.859375 C 26.296875 21.140625 26.878906 19.359375 26.953125 17.515625 C 27.035156 15.679688 26.625 13.882812 25.71875 12.125 C 24.820312 10.375 23.398438 8.832031 21.453125 7.5 L 23.4375 0 L 13.25 0 C 10.664062 0 8.4375 -0.9375 6.5625 -2.8125 C 4.6875 -4.6875 3.75 -6.914062 3.75 -9.5 L 3.75 -41.609375 L 22.734375 -41.609375 L 22.734375 -18.875 L 60.46875 -18.875 Z M 47.8125 0 "/></g></g><g transform="translate(677.929657, 113.999995)"><g><path d="M 3.75 -45.359375 L 16.40625 -64.21875 L 50.984375 -64.21875 C 53.640625 -64.21875 55.882812 -63.300781 57.71875 -61.46875 C 59.550781 -59.632812 60.46875 -57.425781 60.46875 -54.84375 L 60.46875 -45.359375 Z M 13.25 0 C 10.664062 0 8.4375 -0.9375 6.5625 -2.8125 C 4.6875 -4.6875 3.75 -6.914062 3.75 -9.5 L 3.75 -32.109375 C 3.75 -34.691406 4.6875 -36.921875 6.5625 -38.796875 C 8.4375 -40.671875 10.664062 -41.609375 13.25 -41.609375 L 25.203125 -41.609375 L 37.859375 -22.734375 L 22.734375 -22.734375 L 22.734375 -18.875 L 41.609375 -18.875 L 41.609375 -41.609375 L 60.46875 -41.609375 L 60.46875 0 Z M 45.9375 -73.125 C 43.75 -73.125 41.289062 -73.710938 38.5625 -74.890625 C 32.3125 -77.546875 28.25 -78.875 26.375 -78.875 C 24.257812 -78.875 22.1875 -78.171875 20.15625 -76.765625 C 18.90625 -75.898438 17.226562 -74.375 15.125 -72.1875 L 15.125 -83.5625 C 17.226562 -85.664062 18.90625 -87.148438 20.15625 -88.015625 C 22.34375 -89.492188 24.453125 -90.234375 26.484375 -90.234375 C 28.671875 -90.234375 31.132812 -89.648438 33.875 -88.484375 C 40.039062 -85.828125 44.0625 -84.5 45.9375 -84.5 C 47.738281 -84.5 49.691406 -85.125 51.796875 -86.375 C 53.128906 -87.15625 54.769531 -88.40625 56.71875 -90.125 L 56.71875 -78.875 C 55 -77.382812 53.320312 -76.132812 51.6875 -75.125 C 49.5 -73.789062 47.582031 -73.125 45.9375 -73.125 Z M 45.9375 -73.125 "/></g></g><g transform="translate(742.148403, 113.999995)"><g><path d="M 3.75 -45.359375 L 3.75 -54.84375 C 3.75 -57.34375 4.6875 -59.53125 6.5625 -61.40625 C 8.4375 -63.28125 10.664062 -64.21875 13.25 -64.21875 L 50.984375 -64.21875 C 53.640625 -64.21875 55.882812 -63.300781 57.71875 -61.46875 C 59.550781 -59.632812 60.46875 -57.425781 60.46875 -54.84375 L 60.46875 -45.359375 Z M 50.984375 0 L 13.25 0 C 10.664062 0 8.4375 -0.9375 6.5625 -2.8125 C 4.6875 -4.6875 3.75 -6.914062 3.75 -9.5 L 3.75 -41.609375 L 22.734375 -41.609375 L 22.734375 -18.875 L 41.609375 -18.875 L 41.609375 -41.609375 L 60.46875 -41.609375 L 60.46875 -9.5 C 60.46875 -6.914062 59.53125 -4.6875 57.65625 -2.8125 C 55.78125 -0.9375 53.554688 0 50.984375 0 Z M 50.984375 0 "/></g></g></g></svg>